<?xml version="1.0" encoding="UTF-8"?>
<svg width="1440px" height="1000px" viewBox="0 0 1440 1000" version="1.1" xmlns="http://www.w3.org/2000/svg" xmlns:xlink="http://www.w3.org/1999/xlink">
    <title>Hero image</title>
    <defs>
        <rect id="path-1" x="0" y="0" width="1440" height="1000"></rect>
        <path d="M1447.27382,951.461966 C1464.89817,882.698397 1474.12131,795.944103 1477.5,700.515758 C1374.12586,297.245503 1012.8542,8.21897303 585.007168,0.275804464 C579.62057,0.0910154732 574.231214,0 568.844616,0 C563.915865,0 559.072615,0.0910154732 554.141106,0.182030946 C246.749219,7.94592661 0,259.623016 0,568.830159 C0,573.761543 0.0910177863,578.601911 0.182035573,583.533295 C0.273053359,588.373663 0.457847046,593.123016 0.728142291,597.869611 C17.3512998,1037.20957 411.860999,1347.97225 750.392002,1667.5 C1093.21739,1571.24976 1362.43421,1298.38537 1447.27382,951.461966" id="path-3"></path>
        <polygon id="path-5" points="0 0 2791.21211 0 2791.21211 2835.26989 0 2835.26989"></polygon>
        <path d="M1920.5484,52.0241131 C1917.07497,34.4691852 1913.14319,17.096517 1908.75584,0 C1905.37352,95.5482942 1896.14047,182.411635 1878.49719,251.261637 C1793.56644,598.621109 1524.06041,871.828477 1180.86674,968.199702 C1098.62804,991.244514 1012.15384,1004.18496 923.05939,1005.56571 C915.309045,1005.68446 907.544895,1005.76178 899.800072,1006.09592 C869.831335,1007.39383 751.033207,1009.05626 593.867143,965.797187 C469.8561,931.664906 304.381954,852.078148 208.01206,852.078148 C-135.363844,852.078148 49.9127519,1349.06183 49.9127519,1349.06183 C179.757952,1747.79646 554.593574,2032.5 996.838147,2032.5 C1253.45547,2032.5 1488.58884,1936.67555 1666.30837,1778.31116 C1812.67586,1647.74138 1920.09282,1474.74926 1968.17699,1278.07442 C2061.2474,915.349897 1920.5484,52.0241131 1920.5484,52.0241131" id="path-7"></path>
        <rect id="path-9" x="0" y="430.823392" width="1999.02024" height="1226.11106"></rect>
    </defs>
    <g id="All-pages" stroke="none" stroke-width="1" fill="none" fill-rule="evenodd">
        <g id="Front-page-(Desktop)" transform="translate(0.000000, -82.000000)">
            <g id="Hero-image" transform="translate(0.000000, 82.000000)">
                <mask id="mask-2" fill="white">
                    <use xlink:href="#path-1"></use>
                </mask>
                <use id="Mask" fill="#171572" xlink:href="#path-1"></use>
                <g id="Pattern" opacity="0.294852121" mask="url(#mask-2)">
                    <g transform="translate(-508.000000, -883.000000)">
                        <g id="Group-5-Copy-2" transform="translate(432.500000, 0.000000)">
                            <mask id="mask-4" fill="white">
                                <use xlink:href="#path-3"></use>
                            </mask>
                            <use id="Mask" fill="#171572" xlink:href="#path-3"></use>
                            <g mask="url(#mask-4)">
                                <g transform="translate(-158.912289, -1056.331098)">
                                    <mask id="mask-6" fill="white">
                                        <use xlink:href="#path-5"></use>
                                    </mask>
                                    <g id="Clip-4" stroke="none" fill="none"></g>
                                    <path d="M2680.32898,72.5719073 C2675.48143,48.0833668 2669.99423,23.8490726 2663.87121,0 C2659.15082,133.286692 2646.26513,254.458163 2621.64205,350.501626 C2503.11219,835.056535 2126.98794,1216.17173 1648.02477,1350.60638 C1533.25194,1382.75312 1412.56804,1400.80461 1288.22728,1402.73072 C1277.41085,1402.89637 1266.57515,1403.00423 1255.76643,1403.47035 C1213.94188,1405.28089 1048.14649,1407.59992 828.804582,1347.25495 C655.73402,1299.64155 424.797299,1188.62067 290.302891,1188.62067 C-188.9146,1188.62067 69.6585389,1881.89638 69.6585389,1881.89638 C250.871286,2438.11792 773.994151,2835.26989 1391.19336,2835.26989 C1749.33004,2835.26989 2077.48361,2701.59798 2325.51005,2480.68492 C2529.78141,2298.54441 2679.69317,2057.22616 2746.79973,1782.8713 C2876.68935,1276.88266 2680.32898,72.5719073 2680.32898,72.5719073" id="Fill-3" stroke="none" fill="#0946C6" fill-rule="evenodd" mask="url(#mask-6)"></path>
                                </g>
                            </g>
                        </g>
                        <g id="Group-28" transform="translate(0.000000, 700.000000)">
                            <g id="Bitmap">
                                <mask id="mask-8" fill="white">
                                    <use xlink:href="#path-7"></use>
                                </mask>
                                <use id="Mask" fill="#0068FF" xlink:href="#path-7"></use>
                            </g>
                            <mask id="mask-10" fill="white">
                                <use xlink:href="#path-9"></use>
                            </mask>
                            <g id="Mask"></g>
                        </g>
                    </g>
                </g>
            </g>
        </g>
    </g>
</svg>